<?xml version="1.0" standalone="no"?>
<!DOCTYPE svg PUBLIC "-//W3C//DTD SVG 20010904//EN"
 "http://www.w3.org/TR/2001/REC-SVG-20010904/DTD/svg10.dtd">
<svg version="1.0" xmlns="http://www.w3.org/2000/svg"
 width="344.000000pt" height="344.000000pt" viewBox="0 0 344.000000 344.000000"
 preserveAspectRatio="xMidYMid meet">
<metadata>
Created by potrace 1.14, written by Peter Selinger 2001-2017
</metadata>
<g transform="translate(0.000000,344.000000) scale(0.100000,-0.100000)"
fill="#000000" stroke="none">
<path d="M2630 2693 c-1 -76 -23 -178 -51 -233 -48 -94 -258 -300 -307 -300
-4 0 -18 31 -30 69 -25 76 -85 177 -135 223 -54 51 -169 134 -226 162 -60 31
-176 56 -256 56 -61 0 -171 -23 -230 -47 -163 -68 -334 -239 -388 -389 -13
-38 -31 -70 -39 -72 -20 -4 -161 137 -195 195 -15 26 -37 77 -49 113 -12 35
-26 66 -32 68 -16 5 -147 -271 -173 -364 -51 -187 -58 -370 -19 -498 41 -133
96 -232 173 -313 125 -131 205 -182 422 -268 82 -33 193 -94 245 -135 20 -16
54 -55 76 -87 40 -59 58 -70 83 -54 10 7 7 21 -18 72 -17 35 -31 73 -31 84 1
19 2 18 21 -5 11 -14 37 -45 57 -69 20 -24 41 -52 46 -62 5 -11 14 -19 19 -19
6 0 18 -7 28 -16 17 -15 20 -14 46 17 15 18 36 46 47 63 10 17 39 56 65 86
100 118 117 129 52 32 -21 -31 -61 -104 -88 -162 -70 -148 -80 -170 -88 -210
-4 -19 -13 -55 -22 -80 -21 -65 -22 -175 -2 -196 16 -15 18 -13 29 22 42 132
140 229 321 322 52 26 108 52 124 59 297 116 388 168 538 313 124 118 211 258
270 433 30 91 30 94 31 307 0 204 -1 220 -27 315 -15 55 -36 120 -46 145 -11
25 -25 61 -33 80 -23 63 -149 305 -171 328 -21 22 -37 29 -37 15z m-899 -497
c44 -26 84 -72 104 -120 17 -40 20 -112 5 -121 -5 -3 -10 -14 -10 -24 0 -31
-58 -106 -95 -124 -24 -11 -61 -17 -111 -17 -64 0 -80 4 -114 26 -108 72 -141
202 -74 297 44 61 95 97 150 107 61 10 99 4 145 -24z m879 -180 c0 -3 -4 -8
-10 -11 -5 -3 -10 -1 -10 4 0 6 5 11 10 11 6 0 10 -2 10 -4z m-33 -49 c-12
-31 -378 -493 -421 -532 -6 -5 -29 -32 -51 -60 -22 -27 -42 -52 -45 -55 -3 -3
-16 -22 -30 -42 -14 -21 -31 -38 -39 -38 -18 0 -10 18 38 89 22 32 52 80 67
107 41 76 92 140 201 254 55 58 115 123 133 145 85 102 162 171 147 132z
m-1653 -102 c32 -27 57 -60 75 -100 54 -116 48 -154 -10 -64 -18 28 -37 56
-43 62 -60 64 -116 144 -116 167 0 12 10 5 94 -65z m1039 -669 c-10 -13 -19
-23 -21 -21 -5 5 22 45 31 45 4 0 0 -11 -10 -24z"/>
<path d="M3432 1860 c0 -14 2 -19 5 -12 2 6 2 18 0 25 -3 6 -5 1 -5 -13z"/>
<path d="M3432 1790 c0 -14 2 -19 5 -12 2 6 2 18 0 25 -3 6 -5 1 -5 -13z"/>
<path d="M3431 1544 c0 -11 3 -14 6 -6 3 7 2 16 -1 19 -3 4 -6 -2 -5 -13z"/>
</g>
</svg>
